<?xml version="1.0" encoding="UTF-8"?>
<svg id="Layer_1" data-name="Layer 1" xmlns="http://www.w3.org/2000/svg" viewBox="0 0 552.28 552.28">
  <defs>
    <style>
      .cls-1 {
        stroke: #fff;
        stroke-miterlimit: 10;
      }

      .cls-1, .cls-2 {
        fill: #bc1d1a;
      }

      .cls-2, .cls-3 {
        stroke-width: 0px;
      }

      .cls-3 {
        fill: #fff;
      }
    </style>
  </defs>
  <circle class="cls-1" cx="276.14" cy="276.14" r="275.64"/>
  <path class="cls-3" d="M507.1,295.22c-5.63,74.3-33.51,128.61-74.42,155.03-41.05,27.62-95.12,27.34-156.35,20.39-121.64-15.9-219.09-56.72-231.14-170.24-5.41-55.3,15.93-110.57,57.94-152.54,41.67-42.27,104-71.24,172.8-81.01,68.79-8.77,131.3,4.44,173.08,45.88,42.13,40.23,63.52,108.71,58.1,182.49Z"/>
  <g>
    <path class="cls-2" d="M279.09,232.72c13.18,0,23.66-10.48,23.66-23.66v-30.42c0-2.03-1.35-3.38-3.38-3.38h-40.56c-2.03,0-3.38,1.35-3.38,3.38v30.42c0,13.18,10.48,23.66,23.66,23.66ZM262.19,182.02h33.8v27.04c0,9.46-7.44,16.9-16.9,16.9s-16.9-7.44-16.9-16.9v-27.04Z"/>
    <path class="cls-2" d="M194.59,229.34h-30.42c-2.03,0-3.38,1.35-3.38,3.38v47.32c0,2.03,1.35,3.38,3.38,3.38h30.42c2.03,0,3.38-1.35,3.38-3.38v-47.32c0-2.03-1.35-3.38-3.38-3.38ZM191.22,276.66h-23.66v-40.56h23.66v40.56Z"/>
    <path class="cls-2" d="M194.59,303.7h-30.42c-2.03,0-3.38,1.35-3.38,3.38v47.32c0,2.03,1.35,3.38,3.38,3.38h30.42c2.03,0,3.38-1.35,3.38-3.38v-47.32c0-2.03-1.35-3.38-3.38-3.38ZM191.22,351.01h-23.66v-40.56h23.66v40.56Z"/>
    <path class="cls-2" d="M414.28,195.54h-64.22v-27.04c2.03,0,3.38-1.35,3.38-3.38v-10.14c0-2.03-1.35-3.38-3.38-3.38h-141.95c-2.03,0-3.38,1.35-3.38,3.38v10.14c0,2.03,1.35,3.38,3.38,3.38v27.04h-64.22c-2.03,0-3.38,1.35-3.38,3.38v10.14c0,2.03,1.35,3.38,3.38,3.38v165.61c0,2.03,1.35,3.38,3.38,3.38h263.62c2.03,0,3.38-1.35,3.38-3.38v-165.61c2.03,0,3.38-1.35,3.38-3.38v-10.14c0-2.03-1.35-3.38-3.38-3.38ZM211.49,158.37h135.19v3.38h-135.19v-3.38ZM214.87,168.51h128.43v102.74l-62.53-31.43c-1.01-.34-2.03-.34-3.04,0l-62.86,31.43v-102.74ZM343.3,286.8h-40.56c.34-1.35.34-2.37.34-3.72,0-1.01,0-2.03-.34-3.04h40.56v6.76ZM302.75,364.53v-47.32c0-2.03-1.35-3.38-3.38-3.38h-40.56c-2.03,0-3.38,1.35-3.38,3.38v47.32h-3.38v-6.76c0-2.03-1.35-3.38-3.38-3.38v-50.7c2.03,0,3.38-1.35,3.38-3.38v-6.76h5.07c4.06,8.11,12.17,13.86,21.97,13.86s17.91-5.75,21.97-13.86h5.07v6.76c0,2.03,1.35,3.38,3.38,3.38v50.7c-2.03,0-3.38,1.35-3.38,3.38v6.76h-3.38ZM295.99,364.53h-33.8v-43.94h33.8v43.94ZM278.75,258.74c-9.8,0-18.25,6.08-22.31,14.53h-30.76l53.4-26.7,53.4,26.7h-31.43c-3.72-8.45-12.51-14.53-22.31-14.53ZM296.33,283.08c0,9.8-7.77,17.57-17.57,17.57s-17.57-7.77-17.57-17.57,7.77-17.57,17.57-17.57,17.57,7.77,17.57,17.57ZM214.87,280.04h39.88c0,1.01-.34,2.03-.34,3.04,0,1.35,0,2.37.34,3.72h-39.88v-6.76ZM245.29,293.56v3.38h-16.9v-3.38h16.9ZM231.77,303.7h10.14v50.7h-10.14v-50.7ZM228.39,361.15h16.9v3.38h-16.9v-3.38ZM312.89,361.15h16.9v3.38h-16.9v-3.38ZM326.41,354.39h-10.14v-50.7h10.14v50.7ZM329.79,296.94h-16.9v-3.38h16.9v3.38ZM147.28,202.3h60.84v3.38h-60.84v-3.38ZM150.66,212.44h57.46v162.23h-57.46v-162.23ZM214.87,293.56h6.76v6.76c0,2.03,1.35,3.38,3.38,3.38v50.7c-2.03,0-3.38,1.35-3.38,3.38v6.76c-2.03,0-3.38,1.35-3.38,3.38v6.76h-3.38v-81.11ZM225.01,374.67v-3.38h108.15v3.38h-108.15ZM339.92,374.67v-6.76c0-2.03-1.35-3.38-3.38-3.38v-6.76c0-2.03-1.35-3.38-3.38-3.38v-50.7c2.03,0,3.38-1.35,3.38-3.38v-6.76h6.76v81.11h-3.38ZM407.52,374.67h-57.46v-162.23h57.46v162.23ZM350.06,205.68v-3.38h60.84v3.38h-60.84Z"/>
    <path class="cls-2" d="M363.58,283.42h30.42c2.03,0,3.38-1.35,3.38-3.38v-47.32c0-2.03-1.35-3.38-3.38-3.38h-30.42c-2.03,0-3.38,1.35-3.38,3.38v47.32c0,2.03,1.35,3.38,3.38,3.38ZM366.96,236.1h23.66v40.56h-23.66v-40.56Z"/>
    <path class="cls-2" d="M363.58,357.77h30.42c2.03,0,3.38-1.35,3.38-3.38v-47.32c0-2.03-1.35-3.38-3.38-3.38h-30.42c-2.03,0-3.38,1.35-3.38,3.38v47.32c0,2.03,1.35,3.38,3.38,3.38ZM366.96,310.45h23.66v40.56h-23.66v-40.56Z"/>
  </g>
</svg>