<svg id="Layer_1" data-name="Layer 1" xmlns="http://www.w3.org/2000/svg" viewBox="0 0 1000 1000"><defs><style>.cls-1{fill:#75b8bf;opacity:0.11;}.cls-2{fill:#bc1d1a;}</style></defs><circle class="cls-1" cx="447.58" cy="500" r="362"/><path class="cls-2" d="M963.17,673.21c-5.43-15.45-15.21-22.51-31.58-22.73-2.59,0-5.19,0-8.38,0v-113H881.44c-3.5-34.57-6.91-68.36-10.4-102.85H779.6V342.81H728.42c2-45.29-12.44-83.85-42.49-116.24l1.74-2a155,155,0,0,0-15.55-13.88c-.54.58-1.08,1.17-1.64,1.76-2.55-1.83-4.87-3.51-7.22-5.17a150.32,150.32,0,0,0-69.76-26.75c-4.51-.55-6.94-.9-8-2.3-2.85-.16-5.73-.24-8.61-.24q-6.18,0-12.22.47v1.21c-31.23,2.54-59.61,13.17-85.07,33.21-.1-.1-.19-.21-.28-.32a154.3,154.3,0,0,0-14.62,13.5l.13.12c-16.71,18.19-28.67,38.06-35.65,59.82-.18.57-.36,1.14-.53,1.72s-.32,1-.47,1.57-.31,1-.45,1.55a.45.45,0,0,0,0,.11c-.12.42-.24.84-.35,1.26-.07.24-.13.48-.2.72l-.43,1.66a.36.36,0,0,0,0,.1h0c-.3,1.2-.59,2.4-.87,3.62-.12.56-.25,1.11-.37,1.68l-.42,2-.18.92c-.09.46-.17.92-.26,1.38a163.22,163.22,0,0,0-2.35,38.42h-51.6V650.51c-3.83,0-7-.08-10.25,0-17.65.55-31,13.84-30.83,30.69.15,17,13.59,30,31.3,30s35.55,0,53.33,0h7.34c1.19,25.21,11.21,45.45,31.88,59.63a69.28,69.28,0,0,0,45.22,12.06c28.64-2.06,63.4-23.62,66.66-71.29H757.67c3.63,11.5,5.82,23,10.76,33.16,13.78,28.34,46.19,43.2,77.56,36.84,30.69-6.23,54.29-33,56.35-64.2.31-4.62,1.45-6.59,6.49-6.31,7.83.43,15.71.13,23.56.11q23.19-.09,30.65-22.11a21.28,21.28,0,0,1,1.37-2.69V675.28A11.58,11.58,0,0,1,963.17,673.21ZM370.08,691.05c-6.45.27-13.39,2.35-17.69-3.89-1.85-2.67-2.44-7.84-1.11-10.74,3.56-7.77,11.24-6,18.8-5.95ZM575.59,199.23C649.1,199.71,709.41,260.3,708.7,333A133.49,133.49,0,0,1,574.91,465.79C501.42,465.74,441.79,405.86,442,332.3,442.19,258.9,502.58,198.75,575.59,199.23ZM493.22,763.05A51.52,51.52,0,0,1,442,711.78c0-28.12,23-51.38,51.07-51.52s51.88,23.64,51.71,51.66S521.21,763.09,493.22,763.05Zm266.27-72c-2.28.11-4.47.31-6.65.31q-92.39,0-184.78.11c-4.63,0-6.81-1.32-8.52-5.78a71,71,0,0,0-132.45.1c-1.71,4.39-3.94,5.9-8.6,5.7-9-.39-18.07-.12-27.49-.12V363.09c10.69,0,21.32-.16,31.93.23,1,0,2.28,2.39,2.92,4.29.1.31.19.6.26.88,7,28.87,21.41,53.49,42.42,74.33,25.34,25.13,56.05,39.24,91.33,42.72,40.6,4,77.58-6.39,109.67-31.77,27-21.37,45.53-48.84,53.87-82.49,1.11-4.48,2.69-6.89,5.49-7.91a13.93,13.93,0,0,1,5.7-.53c8.17.55,16.41.13,24.9.13Zm26.82-235.93c20.23.36,40.47.12,60.71.15,1.81,0,3.63.2,6,.34,2.72,27.29,5.4,54.29,8.13,81.72H780c-.12-2.33-.31-4.34-.32-6.35,0-22.92.13-45.85-.13-68.76C779.52,457.05,780.57,455.05,786.31,455.16Zm45.36,307.89c-28.28.1-51.93-23.4-51.81-51.48.11-27.85,23.61-51.3,51.43-51.31,28,0,51.3,23.23,51.39,51.26S859.67,763,831.67,763.05Zm71.61-77.26a44,44,0,0,1-.71,5.56l-2,.86c-9.16-25-25.31-42.81-51.13-49.47s-48.91,0-69.28,18.89c-.23-2.7-.48-4.24-.48-5.77,0-30.59.06-61.18-.11-91.76,0-4.71,1.1-6.49,6.17-6.47q55.82.3,111.61,0c4.6,0,6,1.36,6,6C903.25,604.36,903.32,645.07,903.28,685.79Zm39.07.18c-3.9,7.61-11.55,5-18.58,5.4V670.62c6.75-.25,14-2,18.12,4.59A12.81,12.81,0,0,1,942.35,686Z"/><path class="cls-2" d="M493.64,681.35A30.38,30.38,0,1,1,463,711.18,30.1,30.1,0,0,1,493.64,681.35Zm-.37,20A10.61,10.61,0,0,0,483,711.53a10.3,10.3,0,1,0,10.3-10.22Z"/><path class="cls-2" d="M861.66,711.81a30.3,30.3,0,0,1-30.31,30.3,30.38,30.38,0,1,1,.24-60.75A30.08,30.08,0,0,1,861.66,711.81ZM831.17,722a10.53,10.53,0,0,0,10.51-10,10.3,10.3,0,1,0-20.59-.39A10.44,10.44,0,0,0,831.17,722Z"/><path class="cls-2" d="M611.13,356.24c2.67,2.69,4.46,6.15,9.65,5.22,2.24-.4,5.52,1.48,7.4,3.29,10.32,9.93,20.41,20.11,30.46,30.32,4.67,4.75,4.65,10.85.29,15.12s-10.34,4.11-15.12-.61c-10.07-10-20.15-19.92-30-30.11-1.82-1.88-3.75-5.08-3.41-7.33.77-5-2.3-7.13-5.46-10.1-19.32,16.23-41.48,22.09-66.08,16.85-17.93-3.82-32.46-13.58-43.31-28.38-22.19-30.24-18.39-72.34,8.62-97.82a74.55,74.55,0,0,1,98.57-3.49C630.92,272.1,641.73,320.11,611.13,356.24Zm-56,12.07a61.69,61.69,0,0,0,62-61.63c0-34.31-27.91-62.31-61.76-62.05-34.14.26-62,27.92-61.87,61.48C493.64,340.59,521.15,368.37,555.12,368.31Z"/><path class="cls-2" d="M503.37,312.33c-1.86-30.37,26.9-59.59,56.82-57.89C533.39,266.23,514.73,284.85,503.37,312.33Z"/></svg>