<?xml version="1.0" encoding="UTF-8"?>
<svg id="Layer_1" data-name="Layer 1" xmlns="http://www.w3.org/2000/svg" viewBox="0 0 632.56 662.79">
  <defs>
    <style>
      .cls-1 {
        fill: #bc1d1a;
        stroke: #fff;
        stroke-miterlimit: 10;
      }

      .cls-2 {
        fill: #fff;
        stroke-width: 0px;
      }
    </style>
  </defs>
  <circle class="cls-1" cx="317" cy="344.4" r="275.64"/>
  <path class="cls-2" d="M547.96,363.48c-5.63,74.3-33.51,128.61-74.42,155.03-41.05,27.62-95.12,27.34-156.35,20.39-121.64-15.9-219.09-56.72-231.14-170.24-5.41-55.3,15.93-110.57,57.94-152.54,41.67-42.27,104-71.24,172.8-81.01,68.79-8.77,131.3,4.44,173.08,45.88,42.13,40.23,63.52,108.71,58.1,182.49Z"/>
  <path class="cls-1" d="M317,186.32c-87.16,0-158.07,70.91-158.07,158.07s70.91,158.07,158.07,158.07,158.07-70.91,158.07-158.07-70.91-158.07-158.07-158.07ZM317,486.01c-78.09,0-141.62-63.53-141.62-141.62s63.53-141.62,141.62-141.62,141.62,63.53,141.62,141.62-63.53,141.62-141.62,141.62Z"/>
  <path class="cls-1" d="M368.08,257.39c-3.92-2.3-8.96-.99-11.27,2.92-2.3,3.92-1,8.96,2.92,11.27,25.72,15.12,41.69,43.03,41.69,72.82,0,46.55-37.87,84.43-84.43,84.43s-84.43-37.87-84.43-84.43c0-29.8,15.97-57.7,41.69-72.82,3.92-2.3,5.23-7.35,2.92-11.27-2.3-3.92-7.35-5.23-11.27-2.92-30.72,18.07-49.81,51.41-49.81,87.01,0,55.63,45.26,100.89,100.89,100.89s100.89-45.26,100.88-100.89c0-35.6-19.08-68.94-49.81-87.01Z"/>
  <path class="cls-1" d="M317,232.53c-4.55,0-8.23,3.69-8.23,8.23v103.64c0,4.55,3.68,8.23,8.23,8.23s8.23-3.68,8.23-8.23v-103.64c0-4.54-3.68-8.23-8.23-8.23Z"/>
</svg>