<svg id="Layer_1" data-name="Layer 1" xmlns="http://www.w3.org/2000/svg" viewBox="0 0 1000 1000"><defs><style>.cls-1{fill:#75b8bf;opacity:0.11;}.cls-2{fill:#bc1d1a;}</style></defs><circle class="cls-1" cx="447.58" cy="500" r="362"/><path class="cls-2" d="M446.06,574.65c-2.67,8.37-4.76,15.66-7.41,22.74a9.57,9.57,0,0,1-4.8,4.81c-11.33,4.79-25.05.18-31.82-10.74-4.8-7.74-9.35-15.67-13.64-23.71-7-13.16-3-27.8,9.77-35.67,6.92-4.28,14.06-8.19,20.85-12.12-3.63-13.51-7.1-26.47-10.75-40.06-7.31,0-14.88,0-22.44,0-16.75-.1-27.94-11.22-28-27.85,0-8.17-.1-16.35,0-24.52.21-15.28,11.49-26.52,26.81-26.75,6.84-.1,13.69.16,20.52-.17,1.49-.07,3.79-1.67,4.18-3,1.77-6,2.82-12.21,4.45-18.26s3.61-12,5.59-18.43l-18.72-10.81c-15.82-9.13-19.9-23.88-10.94-39.66q5.64-9.92,11.4-19.74c8.09-13.76,23.31-17.89,37.35-10.1,6.79,3.77,13.48,7.72,19.48,11.16l29.33-30.05c-2.66-4.6-6.19-10.81-9.82-17-9.4-16-5.54-30.9,10.48-40.23,6.57-3.83,13.11-7.7,19.75-11.39,13.84-7.68,28.84-3.71,37,9.81,4,6.66,7.82,13.45,11.8,20.32l40.06-10.7c0-7.12,0-14.49,0-21.87.11-17.88,11-28.59,28.93-28.62,7.8,0,15.59-.09,23.38,0,15.11.2,26.23,11,26.76,26.17.25,7-.16,14.08.23,21.09a6.06,6.06,0,0,0,3.49,4.38c11.87,3.3,23.85,6.21,36.47,9.41,3.48-6,7.21-12.59,11.06-19.09,8.8-14.87,23.56-18.86,38.51-10.41,6.95,3.93,13.88,7.88,20.73,12,13.28,7.95,17.44,22.83,10.1,36.51-3.77,7-7.94,13.83-11.43,19.87l29.61,29.71c5.78-3.32,12.46-7.25,19.24-11,14.31-8,29.42-3.76,37.67,10.4,4,6.89,8.1,13.75,12,20.73,7.82,14.08,3.74,29.08-10.12,37.34-6.66,4-13.43,7.78-20,11.57l10.76,40.05c7,0,14.41,0,21.78,0,17.84.07,28.68,11,28.7,28.88,0,7.79.07,15.59,0,23.38-.17,15.28-11.39,26.59-26.69,26.85-7.95.14-15.91,0-23.78,0l-10.72,40c5.83,3.39,12,7,18.24,10.58,16.07,9.26,20.07,24,10.85,40.1-3.86,6.76-7.66,13.57-11.7,20.23-6.82,11.27-20.48,16.24-32.05,11.38a11,11,0,0,1-5.19-5.78c-2.65-6.81-4.68-13.87-7.27-21.81,5.74,3.27,10.76,6.16,15.8,9,6.28,3.53,10.13,2.56,13.78-3.61q5.67-9.56,11.1-19.26c3.7-6.59,2.69-10.12-4-14-8-4.71-16.13-9.31-24.17-14-6.47-3.77-7.28-7.12-5.26-14.2,4.51-15.85,8.69-31.8,12.69-47.79,1.56-6.22,4-9,10.44-9.06,9.89-.17,19.77,0,29.65-.13,7.18-.1,9.94-3,10-10.14q.12-11.11,0-22.24c-.08-7.06-2.9-9.9-10.13-10-9.31-.13-18.63,0-27.94-.08-8.27-.06-10.35-2.48-12.21-10.35-3.57-15.12-7.5-30.18-11.91-45.08-2.7-9.11-2.28-11.68,5.75-16.32s15.84-9.05,23.68-13.7c5.95-3.54,7-7.31,3.62-13.32q-5.55-10-11.4-19.75c-3.61-6.07-7.52-7-13.83-3.44-8.26,4.7-16.42,9.57-24.71,14.22-6.58,3.68-9.63,2.58-14.85-2.87-11-11.51-22.22-22.85-33.75-33.84-6.2-5.92-7.12-8.54-2.74-16.2s8.94-15.46,13.36-23.22c4-7.05,3.19-10.53-3.63-14.61q-9.54-5.7-19.25-11.11c-5.94-3.33-9.89-2.27-13.32,3.57-4.91,8.35-9.66,16.8-14.57,25.15-3.57,6.09-7.1,6.89-13.84,5q-23.78-6.78-47.8-12.75c-6.57-1.65-9.17-4-9.25-10.84-.1-9.51.05-19,0-28.52-.08-7.95-2.79-10.66-10.6-10.74q-10.54-.09-21.1,0c-8.13.07-10.77,2.75-10.83,11.1-.07,9.12,0,18.25,0,27.37,0,7.82-2.49,9.92-10.18,11.78q-23.21,5.63-46.14,12.35c-7.7,2.26-10.89,1.58-15-5.53-4.68-8-9.31-16.12-14-24.15-3.47-5.93-7.42-7.13-13.23-3.88q-9.71,5.4-19.25,11.12c-7,4.15-7.87,7.59-3.92,14.52,4.7,8.26,9.52,16.44,14.2,24.71,3.39,6,2.43,9.32-2.43,14q-17.94,17.46-35.4,35.39c-4.56,4.67-7.82,5.73-13.54,2.55-8.47-4.71-16.8-9.67-25.22-14.47-6.55-3.73-10.47-2.75-14.23,3.62s-7.47,12.8-11.08,19.27c-3.52,6.3-2.5,10,3.8,13.69,8,4.73,16.11,9.32,24.16,14,6.84,4,7.63,7.21,5.51,14.58q-6.75,23.49-12.57,47.24c-1.68,6.76-4.06,9.36-11.29,9.43-9.31.1-18.63,0-27.94.05-8.27.08-10.9,2.78-10.94,11,0,7.23-.08,14.45,0,21.67.09,6.78,2.92,9.67,9.78,9.79,9.31.15,18.62,0,27.94.08,8.69,0,10.66,2.36,12.59,10.57,3.51,14.95,7.38,29.83,11.79,44.53,2.83,9.46,2.48,11.93-5.85,16.76-7.73,4.47-15.5,8.88-23.19,13.41-6.29,3.72-7.32,7.4-3.8,13.69q5.55,9.95,11.39,19.75c3.42,5.74,7.48,6.73,13.42,3.42C435.24,580.89,440.29,578,446.06,574.65Z"/><path class="cls-2" d="M579.72,545.26c-7.27,0-12.88,0-18.48,0-20.44-.14-39.68,4.17-56.59,16.13-21,14.85-31.9,35.64-32.52,61-.77,31.72-.28,63.47-.24,95.2,0,6.58,3.26,9.74,9.76,10.09,1.51.08,3,0,4.56,0H786.08c12.16,0,14.25-2.09,14.25-14.21,0-27.75-.48-55.5.1-83.24,1.06-49.71-33.86-83-83.33-84.93-7.58-.29-15.18,0-24,0a44.1,44.1,0,0,1,3.34-3c4.06-2.81,8.79-5,12.11-8.46,6.07-6.39,12.8-7,21.08-6,52.7,6.55,88.88,46.94,88.94,100q.06,44.48,0,88.94c0,18-11.17,29.16-29.16,29.17q-153.36,0-306.72,0c-17.93,0-29.07-11.24-29.08-29.25q0-44.46,0-88.93c.11-52.82,36-93.1,88.44-99.79,8.37-1.07,15.32-.68,21.65,5.9C567.77,538.14,573.37,540.87,579.72,545.26Z"/><path class="cls-2" d="M635.73,540.68c-55.38-.09-100.11-45.19-100-100.84.11-55.33,45.29-100,101-99.86,55.29.13,99.88,45.35,99.72,101.14C736.29,496.11,691.11,540.77,635.73,540.68Zm.13-18.26c46.48.11,83.19-37.07,82.16-85.16-.95-44.29-37.8-78.77-81.44-79C591.36,358,554.2,394.69,554,439.72,553.83,485.26,590.5,522.31,635.86,522.42Z"/><path class="cls-2" d="M612.68,556.85l17.71,2.25c-2.1,10.41-4.11,20.55-6.21,30.67-4.61,22.31-9.39,44.58-13.75,66.93a10.83,10.83,0,0,0,2.15,8c7.41,8.83,15.3,17.27,23.52,26.39,8.8-9.91,17.33-19.27,25.46-29,1.07-1.28.48-4.34.05-6.45-6.52-32-13.15-63.93-19.88-96.55l18.12-2.34c2.2,10.47,4.4,20.81,6.54,31.16,4.63,22.3,9.17,44.62,13.89,66.9,1.61,7.61.29,14.16-5.11,20-8.23,8.94-16.13,18.19-24.28,27.2-9,10-20.57,10-29.55,0-8.4-9.31-16.63-18.76-25-28.09-4.37-4.87-6.12-10.45-4.8-16.84q10.17-49.36,20.45-98.7A13,13,0,0,1,612.68,556.85Z"/><path class="cls-2" d="M782,442.12c.05-6.94,3-11,8.33-11.5a9.21,9.21,0,0,1,9.7,7c1.82,7.26-.47,13.6-5.66,15.65C787.42,456,782,451.11,782,442.12Z"/><path class="cls-2" d="M663.42,278.41c8.28.39,13.1,4.44,12.63,10.62a9.14,9.14,0,0,1-9.65,8.38c-8.44-.49-13.29-4.38-13-10.4C653.69,281.84,658,278.15,663.42,278.41Z"/><path class="cls-2" d="M499.4,493.54a9.06,9.06,0,0,1-8.75,9.27c-5.77.21-11-6.31-10.83-13.59a9,9,0,0,1,9.06-8.93C494.52,480.27,499.35,486.35,499.4,493.54Z"/><path class="cls-2" d="M609.21,296.69c-5.53,0-9.56-3.76-9.58-9,0-6.12,5.2-10,13.35-9.95a9.25,9.25,0,0,1,9.34,9.36C622.23,292.81,617,296.65,609.21,296.69Z"/><path class="cls-2" d="M516.77,350a9.14,9.14,0,0,1-8.77-9.26c.07-5.92,6.9-12.63,12.55-12.34a8.8,8.8,0,0,1,8.45,9.44C528.79,343.53,522.11,350.17,516.77,350Z"/><path class="cls-2" d="M500.86,383.57c-.1,7.14-5.08,13.21-10.78,13.15a9.31,9.31,0,0,1-9-9.09c-.1-7.26,5.14-13.58,11.1-13.39A9.12,9.12,0,0,1,500.86,383.57Z"/><path class="cls-2" d="M791,493.7c-.23,7.28-5.11,13.08-10.9,12.95-5.23-.12-9.68-4.53-8.86-9.64,1.14-7.15,3.79-12.87,11.09-12.65A9.05,9.05,0,0,1,791,493.7Z"/><path class="cls-2" d="M713.16,296.62c5.94,0,12.9,5.94,13,11.18a9.07,9.07,0,0,1-8.69,9.29c-6.45,0-13.37-5.94-13.33-11.46A9,9,0,0,1,713.16,296.62Z"/><path class="cls-2" d="M754.36,331.05c5.16-.16,11.92,6.68,12.13,12.29a9,9,0,0,1-8.55,9.4c-5.6.26-12.37-6.53-12.43-12.46A9.19,9.19,0,0,1,754.36,331.05Z"/><path class="cls-2" d="M490.15,438.54c-.09,6.63-3.6,11-8.94,11-6.11.06-9.47-4.1-9.35-11.57.11-7,3.71-11.25,9.41-11S490.24,431.44,490.15,438.54Z"/><path class="cls-2" d="M557.91,315.15a8.79,8.79,0,0,1-8.76-8.66c-.19-5.4,6.34-11.44,12.62-11.68a9.16,9.16,0,0,1,9.39,8.77C571.43,309.29,564.9,315,557.91,315.15Z"/><path class="cls-2" d="M781.75,377.65c5.78.05,10.52,6,10.54,13.26a9.24,9.24,0,0,1-9.43,9.24c-5.59-.24-10.38-6.63-10.19-13.61A8.9,8.9,0,0,1,781.75,377.65Z"/></svg>