<svg id="Layer_1" data-name="Layer 1" xmlns="http://www.w3.org/2000/svg" viewBox="0 0 1000 1000"><defs><style>.cls-1{fill:#75b8bf;opacity:0.11;}.cls-2{fill:#bc1d1a;}</style></defs><path class="cls-1" d="M809.58,500c-8.12,475.85-715.94,475.77-724,0C93.71,24.15,801.53,24.23,809.58,500Z"/><path class="cls-2" d="M722.13,653.91c-3.49,7.13-6.46,14.11-10.22,20.63-5,8.77-12.55,15.38-20.54,21.46-10.1,7.7-20.07,15.55-30.11,23.32-33.36,25.84-79.77,20.36-105.68-12.91q-61.69-79.17-122.92-158.72Q410.45,519,388.21,490.28c-26.49-34.34-20.45-80.75,13.89-107.16,2.81-2.16,5.6-4.34,8.6-6.67-4.39-8.63-8.67-17.07-13-25.5q-33.63-65.9-67.26-131.8c-4.09-8-.55-16.14,7.63-17.09a14.06,14.06,0,0,1,7.16,1.42Q413.09,235.13,480.82,267c2.46,1.16,4,1.17,6.18-.79,8.09-7.35,18.06-10.43,28.6-12.5Q576,241.89,636.27,229.6A14.84,14.84,0,0,1,649.73,233q148,123,296,245.83c6.74,5.6,7.31,11.43,1.78,18.12L788.27,689.48l-1.36,1.64c-5.48,6.51-11.4,7.09-17.89,1.71q-22-18.29-44.08-36.62ZM924.87,490.05c-1.59-1.36-2.81-2.45-4.07-3.5L768,359.66Q704.35,306.79,640.63,254a7.43,7.43,0,0,0-5.31-1.72q-60.54,11.85-121,24.06a30.38,30.38,0,0,0-24.19,29.19q-.18,6.23-.23,12.45c-.33,36.31-.61,72.62-1,108.93a8.85,8.85,0,0,0,3.52,7.82q140.42,116.43,280.71,233c.88.73,1.83,1.36,3,2.21C825.67,609.94,875.12,550.18,924.87,490.05Zm-457.2-124.7a20.63,20.63,0,0,0-3.81,1.1c-5.3,2.84-10.92,5.28-15.73,8.8-11.29,8.27-22.22,17-33.21,25.69a59.53,59.53,0,0,0-7.83,7.22,52.61,52.61,0,0,0-2.37,67.75Q437.95,519,471.37,562q50.76,65.55,101.55,131.07c17.86,23,49.84,27.57,73.05,10.38,12.67-9.38,25-19.18,37.31-29.1,10.08-8.15,15.78-19,18.19-31.7.75-3.91-.28-6.2-3.31-8.71Q585.27,540.42,472.5,446.74a14.09,14.09,0,0,1-5.53-12c.34-21.23.48-42.46.69-63.69C467.68,369.3,467.67,367.56,467.67,365.35Zm4-78.54L364.88,236.74l-.51.7c21.25,41.65,42.5,83.31,63.93,125.3,2.35-1.81,4.3-3.29,6.24-4.81a69.77,69.77,0,0,1,29.25-14c3.41-.71,4-2.22,4.19-5.46C468.76,321.4,466.14,304.05,471.66,286.81Z"/><path class="cls-2" d="M820.91,524.46c-2.95-1.78-6.16-3.22-8.79-5.39q-36.11-29.75-72-59.71l-94.7-78.62c-4.74-3.94-6.18-9.06-4-13.87,3-6.56,11.18-8.39,17.09-3.6,8.93,7.24,17.73,14.64,26.58,22Q755.86,444,826.62,502.72c3.14,2.6,5.65,5.38,5.73,9.73a10.66,10.66,0,0,1-10.88,11.1Z"/><path class="cls-2" d="M546.2,291.21a36.29,36.29,0,1,1-36.36,36.3A36.25,36.25,0,0,1,546.2,291.21Zm0,50.77a14.83,14.83,0,0,0,14.59-14.47c.1-7.75-6.77-14.74-14.4-14.66a14.57,14.57,0,1,0-.19,29.13Z"/><path class="cls-2" d="M671.45,452.83c2.39,1.13,5.15,1.83,7.13,3.47q42.82,35.31,85.46,70.87a11,11,0,0,1,1.66,15.57c-4.13,4.93-10.66,5.32-16.16.77q-26.19-21.66-52.29-43.42c-11-9.1-21.93-18.16-32.83-27.3a10.94,10.94,0,0,1-3.27-12.56C662.74,456.16,666.63,453.53,671.45,452.83Z"/></svg>