<svg id="Layer_1" data-name="Layer 1" xmlns="http://www.w3.org/2000/svg" viewBox="0 0 1000 1000"><defs><style>.cls-1{fill:#75b8bf;opacity:0.11;}.cls-2{fill:#bc1d1a;}</style></defs><circle class="cls-1" cx="447.58" cy="500" r="362"/><path class="cls-2" d="M390.17,366.89c0,8.21.18,15.52-.05,22.81-.27,8.48-5.22,13.82-12.38,13.88-6.79.05-12.21-4.93-12.44-12.54-.36-12.12-.37-24.27,0-36.38.24-7.84,5-12.58,13-12.67,24.65-.25,49.3-.19,73.95-.05,7,.05,10.88,4.22,13.39,10.69Q515,480,564.55,607.38c1.74,4.49,3.79,6,8.6,6q121.05-.26,242.09-.12h6c19-50,38-99.67,57.16-150.1-14.26-2-28.08-3.95-41.91-5.86L680.91,435.81l-137.82-19c-2.29-.31-4.59-.58-6.85-1-6.94-1.41-11.4-7.19-10.58-13.57.89-6.9,7.12-11.61,14.68-10.67,12,1.51,24,3.31,36,5l130.34,18,129.76,17.94c18.1,2.5,36.22,4.92,54.31,7.49,3.59.51,7.36,1,10.58,2.51,6.07,2.83,7.66,9.21,4.71,17q-18.19,48-36.46,95.93Q856,591.17,842.29,627c-3.35,8.77-6.09,10.67-15.48,10.67H561.62c-9.67,0-12.37-1.85-15.91-10.95Q496.29,499.66,447,372.54c-1.62-4.19-3.46-5.9-8.21-5.79C422.8,367.11,406.86,366.89,390.17,366.89Z"/><path class="cls-2" d="M875.18,353.6c-.62,7.49-1.06,15.37-2,23.19-1,8.73-6.66,13.39-14.1,12.63-6.65-.68-11.61-8.28-10.38-16.41,12-79.12-48.53-152.06-128.6-155.56-68.32-3-127.46,44-140.61,111.31a23,23,0,0,1-6.44,11.57c-3.58,3.39-8.68,2.68-12.91-.06-4.71-3.06-6.33-7.64-5.38-13,5.28-30.06,17.28-57.14,38-79.63,43.81-47.51,98-65.54,160.63-49.65,61.86,15.71,100.45,57,117.06,118.67a103.87,103.87,0,0,1,2.82,14.72C874.15,338.59,874.55,345.89,875.18,353.6Z"/><path class="cls-2" d="M765,761.12a54.79,54.79,0,0,1,.19-109.58c30.23,0,55.12,25,54.88,55.21A55,55,0,0,1,765,761.12Zm30.38-55c-.17-16.63-13.9-30.18-30.34-29.95-16.64.23-30.35,14.1-30,30.36.34,16.56,14.15,30.2,30.44,30.08A30.49,30.49,0,0,0,795.42,706.16Z"/><path class="cls-2" d="M568.16,706.52a54.71,54.71,0,1,1,109.41-.06c-.07,29.9-24.44,54.5-54.15,54.66A54.59,54.59,0,0,1,568.16,706.52Zm84.74,0A30.08,30.08,0,0,0,623,676.21c-16.39-.22-30.24,13.45-30.37,30a30.61,30.61,0,0,0,30,30.46C639.07,736.8,652.79,723.15,652.9,706.56Z"/><path class="cls-2" d="M698,588.65q-53.44,0-106.89,0a29.18,29.18,0,0,1-7.42-.74c-5.37-1.43-8.57-6-8.6-11.59s3.14-10.24,8.49-11.68a30.89,30.89,0,0,1,8-.77q106.89-.06,213.77,0a28.75,28.75,0,0,1,7.42.77,12.1,12.1,0,0,1,.11,23.21,27.89,27.89,0,0,1-7.41.87q-53.73.09-107.46,0Z"/><path class="cls-2" d="M731.26,274.88c-1.86,6.35,1.31,8.69,7.55,10.6a37.77,37.77,0,0,1,27,36.37c0,7.82-4.78,13.35-11.85,13.73a11.86,11.86,0,0,1-12.5-11.73c-.37-10.57-7.67-16.3-18.94-16.72a45.85,45.85,0,0,0-13.63,1.65c-6.58,1.82-10.08,6.62-10.68,13.53-.56,6.33,2.12,10.85,7.57,13.69,10.57,5.52,21.33,10.68,31.81,16.36a108.05,108.05,0,0,1,16.93,10.89c9,7.34,12.2,17.48,11.61,28.86A12.23,12.23,0,0,1,754,403.69c-6.1,0-12.13-4.77-12-11,.14-8.35-4.39-12.67-11-16-9.44-4.76-18.9-9.49-28.32-14.3-3.42-1.76-6.78-3.64-10.08-5.6-14.48-8.56-20.58-21.48-18.79-37.94,1.83-16.79,11.44-27.87,27.16-33.32,4.37-1.52,5.73-3.44,5.36-7.74a49.22,49.22,0,0,1,.18-10.92c1-7,5.45-10.83,12-10.93s11.08,3.68,12.3,10.56A70.17,70.17,0,0,1,731.26,274.88Z"/><path class="cls-2" d="M697.79,539.26H589.18c-7.15,0-11.92-3-13.64-8.42a12.21,12.21,0,0,1,11-16.06c1.72-.13,3.46-.07,5.2-.07H807.21c8.85.13,14.36,4.91,14.24,12.35s-5.62,12.19-14.47,12.2Q752.38,539.28,697.79,539.26Z"/><path class="cls-2" d="M673.16,489.76q-41.86,0-83.73,0c-9.24,0-14.28-4.28-14.33-12s5.31-12.39,14.16-12.4q84.32,0,168.62,0c8.8,0,14.15,4.85,14.07,12.5-.09,7.46-5.2,11.92-13.9,11.93Q715.62,489.79,673.16,489.76Z"/></svg>