<svg id="Layer_1" data-name="Layer 1" xmlns="http://www.w3.org/2000/svg" viewBox="0 0 1000 1000"><defs><style>.cls-1{fill:#75b8bf;opacity:0.11;}.cls-2{fill:#bc1d1a;}</style></defs><circle class="cls-1" cx="447.58" cy="500" r="362"/><path class="cls-2" d="M738,488.56V457.43H681.5c-11.31,0-18.82-7.34-18.83-18.63q-.07-61.14,0-122.28c0-11.69,7.41-19,19.11-19q87.62,0,175.23,0c11.28,0,18.88,7.41,18.89,18.63q.09,61.14,0,122.28c0,11.67-7.46,19-19.1,19q-26.94,0-53.89,0c-.77,0-1.53.08-2.43.12v31H904.64c8.27,0,11.22,2.94,11.22,11.18V730.39c0,8.18-3.07,11.28-11.18,11.28q-271.81,0-543.62.1c-10.18,0-13.91-3.06-13.88-13.93.23-76.29.13-152.58.13-228.88,0-7,3.24-10.4,10.23-10.4q76.08,0,152.18,0l151.59,0q36.57,0,73.13,0ZM376.1,564.08c1,.95,1.58,1.56,2.22,2.08q30.38,24.8,60.81,49.52a8.19,8.19,0,0,0,4.78,1.55q53.29.12,106.6.06c6,0,10,3.56,10,8.88s-4,8.9-10,8.9q-55.53,0-111,.06a12.88,12.88,0,0,1-8.65-3.08q-31.47-25.78-63-51.47c-.78-.64-1.61-1.2-2.54-1.89V712.8a13.48,13.48,0,0,0,1.23-.77q32.26-28.08,64.48-56.2a11.17,11.17,0,0,1,7.74-3q56,.06,111.93,0c5.94,0,9.89,3.68,9.84,9-.06,5.18-4,8.72-9.86,8.72q-53.44,0-106.89.07a7.35,7.35,0,0,0-4.41,1.62q-26.79,23.1-53.42,46.37c-1.79,1.56-3.55,3.17-5.56,5h497.8a8.73,8.73,0,0,0-.58-.75Q848.34,697.42,819,672a7,7,0,0,0-4.26-1.37c-23.88-.08-47.77,0-71.65,0-12,0-23.89,0-35.83,0a8.76,8.76,0,0,1-8.83-6.84c-1.3-6,2.9-10.91,9.48-10.92q55.66,0,111.34-.05a12.42,12.42,0,0,1,8.83,3.36q9.76,8.76,19.7,17.37,17.85,15.51,35.77,31c4.67,4,9.32,8.08,14.25,12.35V575.07a8.66,8.66,0,0,0-.8.45q-34.37,28.08-68.7,56.19a14,14,0,0,1-9.43,3.42c-30.69-.1-61.39,0-92.09,0-6.61,0-13.22.06-19.83,0A8.7,8.7,0,0,1,698.33,625c.6-4.66,4.33-7.66,9.65-7.66q53.16,0,106.31,0a8.93,8.93,0,0,0,6.12-2.15c16.07-13.23,32.23-26.35,48.35-39.51,4.53-3.7,9-7.42,14.14-11.6ZM680.65,439.45H857.84v-124H680.65ZM898,506.52H365.31v39.54H898ZM756.17,457.57v30.76h26.3V457.57Z"/><path class="cls-2" d="M613.81,470.71H596V459.45c0-8.59-5.76-14.62-14.43-15.19-4-.26-8.05-.73-12.09-.86a4.56,4.56,0,0,0-2.9,1.46c-7.91,8-15.7,16.11-23.66,24.05a6.8,6.8,0,0,1-4.29,1.85c-9,.17-17.94.09-27.21.09-.88-4.23-1.9-8.32-2.54-12.47-.57-3.61-2-6.51-5-8.45-5.79,3.59-8.15,9.06-9.18,15.6-1,6.2.32,5.25-6.32,5.3s-13,.12-19.54-.07a6.9,6.9,0,0,1-4.29-1.81c-8-8-15.9-16.18-23.88-24.25a4.18,4.18,0,0,0-2.66-1.35c-4.82.19-9.63.58-14.44.95-8.5.65-14.09,6.69-14.08,15.2,0,2.67,0,5.33,0,8v3.14H391.78c.09-9.42-1.38-18.88,3.86-27.46,6.93-11.34,17.19-16.73,30.32-16.77,6.09,0,12-.55,17.51-3.44,9.77-5.15,15.23-12.91,15.38-24.34,0-4.37-1.09-6.89-4.9-9.4-20.79-13.67-33.41-33-38.5-57.34A6.51,6.51,0,0,0,414.2,329c-10-11.6-15-25.39-17-40.28-2.56-19.45-.35-38.56,5.71-57.2a51.74,51.74,0,0,1,10.3-18.8,32.41,32.41,0,0,1,24.95-11c8.14,0,14.9-2,21.41-7.19a100.27,100.27,0,0,1,36.53-18.88c21-5.66,40.69-2.09,58.38,10.12,24.27,16.76,42.12,38.89,51.32,67.19,5.35,16.44,5.5,33.11-2.58,48.91-2.5,4.9-6.6,9-9.86,13.51a8.52,8.52,0,0,0-1.85,4c-2,30.47-15.89,53.94-41.11,70.9-.68.45-1.62,1.18-1.65,1.81-.35,7.73-.47,15.43,4.6,22.07,6.48,8.5,15.25,12.22,25.69,12.23,8.93,0,16.94,2.41,23.74,8.29,7.09,6.12,11,13.83,11,23.29C613.84,462.07,613.81,466.21,613.81,470.71ZM446.39,284.07c-.35,3.64-.47,7.09-1,10.47-1.65,9.83-5.55,18.78-10.81,27.22-1,1.55-1.93,3.68-1.64,5.32,6.6,37.6,41.91,63.42,79.13,58.77,33.29-4.16,61-34,61.57-67.53a8.13,8.13,0,0,0-1.16-3.45c-2.26-4.56-5.14-8.9-6.74-13.68-1.7-5.06-2.2-10.52-3.26-16A67.09,67.09,0,0,1,534.52,278a69.66,69.66,0,0,1-22.24-18.5C488,275,483.52,276.69,446.39,284.07Zm137.24,15,1.17.33c1.75-4.11,4-8.08,5.15-12.35,3.25-11.77,1.54-23.32-3-34.42-7.93-19.42-20.61-35.39-37-48.28-20.09-15.81-41.76-18-64.27-5.53-7.81,4.32-15,9.76-22.37,14.89a25.88,25.88,0,0,1-13.63,5.11q-5.31.28-10.64.49c-6.33.27-11.49,2.74-14.8,8.28a43.75,43.75,0,0,0-4,8.2,115.81,115.81,0,0,0-5.9,46.31c.69,9,2.66,17.7,7.16,25.74,4.88-6.68,8.5-20.72,5.63-28.43-2.21-5.95,1.3-11.56,7.39-12.1a173,173,0,0,0,36.8-6.94c12.9-4.07,24.92-9.87,34.81-19.36,6.27-6,11.73-5.41,16.39,2a52.61,52.61,0,0,0,19.05,18.58c9.12,5.08,19,6.2,29.18,5.72,7-.33,10.8,3.93,10.2,10.85A46.87,46.87,0,0,0,583.63,299.06ZM530.08,400.47a94.53,94.53,0,0,1-52.7,0l26.36,27Zm2.56,52.41,17.65-16.28c-5.21-5.63-10-10.82-14.09-15.23l-18.65,17.2C522.94,443.69,528,448.49,532.64,452.88Zm-58.49-.31,15.6-14.27-18.1-17.36L457.17,436.6C462.87,442,468.88,447.61,474.15,452.57Z"/><path class="cls-2" d="M684.88,644a53.3,53.3,0,1,1-53.42-53.37A53.3,53.3,0,0,1,684.88,644Zm-17.78.22c0-19.55-15.73-35.69-35-35.81a35.52,35.52,0,1,0,35,35.81Z"/><path class="cls-2" d="M502.75,370.89c-7.24.09-13.25-2.89-18.9-6.52-3.64-2.34-4.3-7.56-2-11.41a8.81,8.81,0,0,1,11-3.62c1.91.79,3.74,1.76,5.59,2.69a9,9,0,0,0,8.5.05c1.85-.92,3.7-1.87,5.6-2.67a8.79,8.79,0,0,1,11.24,3.72,8.57,8.57,0,0,1-2.53,11.54C515.59,368.26,509.54,371.13,502.75,370.89Z"/><path class="cls-2" d="M471.7,302.07c3.05,0,6.1-.1,9.15,0a8.85,8.85,0,0,1,.25,17.68c-6.29.25-12.6.25-18.88,0a8.75,8.75,0,0,1-8.31-9,8.66,8.66,0,0,1,8.64-8.64C465.59,302,468.65,302.07,471.7,302.07Z"/><path class="cls-2" d="M538.17,319.87c-2.76,0-5.52,0-8.28,0-5.44-.1-9.45-4-9.37-9s3.85-8.73,9.19-8.8q8.58-.13,17.16,0c5.36.08,9.21,3.81,9.21,8.75,0,5.11-3.9,8.92-9.32,9C543.9,319.92,541,319.87,538.17,319.87Z"/></svg>